<?xml version="1.0" standalone="no"?>
<svg xmlns:xlink="http://www.w3.org/1999/xlink" id="wave" style="transform:rotate(180deg); transition: 0.3s" viewBox="0 0 1440 120" version="1.1" xmlns="http://www.w3.org/2000/svg"><defs><linearGradient id="sw-gradient-0" x1="0" x2="0" y1="1" y2="0"><stop stop-color="rgba(240, 243, 245, 1)" offset="0%"/><stop stop-color="rgba(8, 107, 114, 1)" offset="100%"/></linearGradient></defs><path style="transform:translate(0, 0px); opacity:1" fill="url(#sw-gradient-0)" d="M0,0L26.7,14C53.3,28,107,56,160,58C213.3,60,267,36,320,26C373.3,16,427,20,480,34C533.3,48,587,72,640,80C693.3,88,747,80,800,76C853.3,72,907,72,960,74C1013.3,76,1067,80,1120,86C1173.3,92,1227,100,1280,90C1333.3,80,1387,52,1440,46C1493.3,40,1547,56,1600,70C1653.3,84,1707,96,1760,92C1813.3,88,1867,68,1920,50C1973.3,32,2027,16,2080,24C2133.3,32,2187,64,2240,78C2293.3,92,2347,88,2400,84C2453.3,80,2507,76,2560,76C2613.3,76,2667,80,2720,78C2773.3,76,2827,68,2880,62C2933.3,56,2987,52,3040,58C3093.3,64,3147,80,3200,72C3253.3,64,3307,32,3360,22C3413.3,12,3467,24,3520,40C3573.3,56,3627,76,3680,82C3733.3,88,3787,80,3813,76L3840,72L3840,120L3813.3,120C3786.7,120,3733,120,3680,120C3626.7,120,3573,120,3520,120C3466.7,120,3413,120,3360,120C3306.7,120,3253,120,3200,120C3146.7,120,3093,120,3040,120C2986.7,120,2933,120,2880,120C2826.7,120,2773,120,2720,120C2666.7,120,2613,120,2560,120C2506.7,120,2453,120,2400,120C2346.7,120,2293,120,2240,120C2186.7,120,2133,120,2080,120C2026.7,120,1973,120,1920,120C1866.7,120,1813,120,1760,120C1706.7,120,1653,120,1600,120C1546.7,120,1493,120,1440,120C1386.7,120,1333,120,1280,120C1226.7,120,1173,120,1120,120C1066.7,120,1013,120,960,120C906.7,120,853,120,800,120C746.7,120,693,120,640,120C586.7,120,533,120,480,120C426.7,120,373,120,320,120C266.7,120,213,120,160,120C106.7,120,53,120,27,120L0,120Z"/></svg>