<?xml version="1.0" standalone="no"?>
<svg xmlns:xlink="http://www.w3.org/1999/xlink" id="wave" style="transform:rotate(180deg); transition: 0.3s" viewBox="0 0 1440 100" version="1.1" xmlns="http://www.w3.org/2000/svg"><defs><linearGradient id="sw-gradient-0" x1="0" x2="0" y1="1" y2="0"><stop stop-color="rgba(240, 243, 245, 1)" offset="0%"/><stop stop-color="rgba(240, 243, 245, 1)" offset="100%"/></linearGradient></defs><path style="transform:translate(0, 0px); opacity:1" fill="url(#sw-gradient-0)" d="M0,10L26.7,18.3C53.3,27,107,43,160,41.7C213.3,40,267,20,320,18.3C373.3,17,427,33,480,41.7C533.3,50,587,50,640,50C693.3,50,747,50,800,56.7C853.3,63,907,77,960,76.7C1013.3,77,1067,63,1120,61.7C1173.3,60,1227,70,1280,71.7C1333.3,73,1387,67,1440,61.7C1493.3,57,1547,53,1600,43.3C1653.3,33,1707,17,1760,23.3C1813.3,30,1867,60,1920,71.7C1973.3,83,2027,77,2080,65C2133.3,53,2187,37,2240,36.7C2293.3,37,2347,53,2400,61.7C2453.3,70,2507,70,2560,66.7C2613.3,63,2667,57,2720,50C2773.3,43,2827,37,2880,35C2933.3,33,2987,37,3040,38.3C3093.3,40,3147,40,3200,41.7C3253.3,43,3307,47,3360,53.3C3413.3,60,3467,70,3520,73.3C3573.3,77,3627,73,3680,70C3733.3,67,3787,63,3813,61.7L3840,60L3840,100L3813.3,100C3786.7,100,3733,100,3680,100C3626.7,100,3573,100,3520,100C3466.7,100,3413,100,3360,100C3306.7,100,3253,100,3200,100C3146.7,100,3093,100,3040,100C2986.7,100,2933,100,2880,100C2826.7,100,2773,100,2720,100C2666.7,100,2613,100,2560,100C2506.7,100,2453,100,2400,100C2346.7,100,2293,100,2240,100C2186.7,100,2133,100,2080,100C2026.7,100,1973,100,1920,100C1866.7,100,1813,100,1760,100C1706.7,100,1653,100,1600,100C1546.7,100,1493,100,1440,100C1386.7,100,1333,100,1280,100C1226.7,100,1173,100,1120,100C1066.7,100,1013,100,960,100C906.7,100,853,100,800,100C746.7,100,693,100,640,100C586.7,100,533,100,480,100C426.7,100,373,100,320,100C266.7,100,213,100,160,100C106.7,100,53,100,27,100L0,100Z"/></svg>